<svg width="439" height="154" viewBox="0 0 439 154" fill="none" xmlns="http://www.w3.org/2000/svg">
<g clip-path="url(#clip0_1872_141)">
<path d="M81.6788 111C83.6294 98.516 70.2018 88.1881 62.7341 84.284C62.3938 84.1062 61.9911 84.1463 61.68 84.3712C57.4277 87.4458 44.9708 94.7383 43.1787 108C40.6787 126.5 63.1788 138.5 81.6788 126.5C96.389 116.958 100.627 106.297 102.642 100.113C102.667 100.036 102.682 99.9581 102.688 99.8781C105.597 59.0576 64.6764 32 62.1788 32C60.1787 32 39.6787 53 29.6787 63.5C8.41195 88.6334 10.5066 111.587 15.6381 128.746C15.8651 129.505 15.233 130.085 14.6222 129.58C7.83983 123.978 -7.32082 95.2193 4.17889 69C14.0374 46.5225 47.7078 14.4231 63.989 0.584307C64.3861 0.246757 64.9763 0.299985 65.3434 0.669943C111.17 46.8503 120.618 52.1246 124.179 78C131.679 132.5 86.6789 151.5 70.1789 153.5C53.6789 155.5 27.4734 152.973 21.6788 124C13.6787 84 57.6788 51 62.1788 52C66.6788 53 85.9134 67.3506 90.1788 81C95.1787 97 79.6788 123.8 81.6788 111Z" fill="url(#paint0_linear_1872_141)"/>
<path d="M181.711 22.9531C181.034 22.276 180.135 21.5078 179.016 20.6484C178.208 19.9714 177.219 19.3854 176.047 18.8906C175.135 18.4219 174.042 18.0703 172.766 17.8359C171.906 17.7057 170.734 17.6016 169.25 17.5234C166.75 17.5234 164.51 17.9531 162.531 18.8125C160.474 19.6198 158.677 20.8698 157.141 22.5625C155.552 24.1771 154.354 26.0911 153.547 28.3047C152.896 30.3099 152.531 32.7448 152.453 35.6094C152.453 38.3177 152.818 40.7135 153.547 42.7969C154.354 44.9323 155.552 46.8854 157.141 48.6562C158.573 50.1406 160.37 51.3906 162.531 52.4062C164.536 53.1875 166.776 53.6172 169.25 53.6953C170.708 53.6953 171.958 53.5521 173 53.2656C174.276 53.0052 175.396 52.6406 176.359 52.1719C177.323 51.7031 178.312 51.0651 179.328 50.2578C180.344 49.3724 181.164 48.513 181.789 47.6797L191.867 57.7578C190.487 59.2943 188.885 60.7135 187.062 62.0156C185.396 63.1094 183.56 64.0859 181.555 64.9453C180.018 65.4922 177.961 66.026 175.383 66.5469C173.69 66.9115 171.451 67.1328 168.664 67.2109C166.242 67.2109 164.094 67.0156 162.219 66.625C159.901 66.2865 157.896 65.7526 156.203 65.0234C154.198 64.2943 152.362 63.3698 150.695 62.25C149.107 61.1302 147.531 59.7891 145.969 58.2266C144.589 56.8464 143.247 55.3099 141.945 53.6172C140.956 52.0807 140.031 50.2318 139.172 48.0703C138.521 46.4036 137.935 44.4115 137.414 42.0938C137.102 40.2708 136.906 38.1094 136.828 35.6094C136.828 33.1875 137.023 31 137.414 29.0469C137.831 26.8073 138.417 24.776 139.172 22.9531C139.875 21.0781 140.799 19.2682 141.945 17.5234C143.065 15.8568 144.406 14.2812 145.969 12.7969C147.401 11.2865 148.964 9.95833 150.656 8.8125C152.375 7.66667 154.198 6.75521 156.125 6.07812C158.182 5.32292 160.174 4.76302 162.102 4.39844C164.003 4.11198 166.19 3.92969 168.664 3.85156C171.086 3.85156 173.299 4.03385 175.305 4.39844C177.362 4.71094 179.393 5.29688 181.398 6.15625C183.273 6.88542 185.083 7.84896 186.828 9.04688C188.547 10.1667 190.148 11.4688 191.633 12.9531L181.711 22.9531ZM219.797 56.0781C220.995 56.0781 222.167 55.8438 223.312 55.375C224.406 54.8281 225.37 53.9948 226.203 52.875C227.01 51.9375 227.674 50.7135 228.195 49.2031C228.534 47.9792 228.742 46.4297 228.82 44.5547C228.82 42.7839 228.612 41.2604 228.195 39.9844C227.753 38.6042 227.089 37.3802 226.203 36.3125C225.396 35.2188 224.432 34.3984 223.312 33.8516C222.375 33.3307 221.203 33.0312 219.797 32.9531C218.391 32.9531 217.193 33.2526 216.203 33.8516C215.109 34.3464 214.146 35.1406 213.312 36.2344C212.531 37.25 211.867 38.474 211.32 39.9062C210.956 41.026 210.734 42.5755 210.656 44.5547C210.656 46.3255 210.878 47.875 211.32 49.2031C211.789 50.5573 212.453 51.7812 213.312 52.875C214.042 53.9167 215.005 54.75 216.203 55.375C217.141 55.8177 218.339 56.0781 219.797 56.1562V56.0781ZM228.508 66V60.1406C228.117 61.2604 227.557 62.224 226.828 63.0312C226.255 63.7865 225.396 64.4766 224.25 65.1016C223.495 65.5182 222.401 65.8958 220.969 66.2344C220.135 66.3906 218.807 66.5208 216.984 66.625C215.396 66.625 214.042 66.4948 212.922 66.2344C211.568 66.0781 210.253 65.7396 208.977 65.2188C207.779 64.6458 206.607 63.9688 205.461 63.1875C204.523 62.5365 203.456 61.638 202.258 60.4922C201.32 59.4245 200.5 58.3307 199.797 57.2109C199.198 56.1693 198.612 54.9062 198.039 53.4219C197.648 52.4062 197.271 51 196.906 49.2031C196.802 48.1615 196.698 46.612 196.594 44.5547C196.594 42.8099 196.698 41.2604 196.906 39.9062C197.062 38.474 197.388 37.0938 197.883 35.7656C198.299 34.4115 198.859 33.2135 199.562 32.1719C200.188 31.026 200.982 29.9583 201.945 28.9688C202.727 28.1354 203.768 27.1979 205.07 26.1562C206.268 25.3229 207.44 24.6328 208.586 24.0859C209.888 23.5391 211.19 23.1094 212.492 22.7969C213.404 22.6406 214.797 22.5104 216.672 22.4062C218.208 22.4062 219.51 22.5365 220.578 22.7969C221.88 22.9531 223.026 23.3568 224.016 24.0078C225.005 24.4505 225.943 25.1146 226.828 26C227.635 26.8073 228.299 27.7448 228.82 28.8125V23.0312H242.258V66H228.508ZM254.25 66V23.0312H267.844V30.9609C268.391 29.4766 269.055 28.2266 269.836 27.2109C270.513 26.2474 271.385 25.3359 272.453 24.4766C273.286 23.8255 274.328 23.2917 275.578 22.875C276.698 22.5625 277.987 22.4062 279.445 22.4062H279.992H280.383H280.695C280.826 22.4062 280.943 22.4323 281.047 22.4844V37.2109C280.396 37.2109 279.914 37.1589 279.602 37.0547C279.497 37.0286 279.38 37.0026 279.25 36.9766C279.146 36.9505 279.042 36.9245 278.938 36.8984C278.833 36.8724 278.677 36.8333 278.469 36.7812C278.104 36.7812 277.818 36.7552 277.609 36.7031C277.271 36.7031 276.997 36.6771 276.789 36.625C275.383 36.625 274.055 36.8724 272.805 37.3672C271.711 37.862 270.826 38.5521 270.148 39.4375C269.471 40.5052 268.99 41.8073 268.703 43.3438C268.391 44.9323 268.234 46.9115 268.234 49.2812V66H254.25ZM301.984 4.86719V28.9688C302.401 27.9531 302.935 27.0417 303.586 26.2344C304.185 25.4792 305.031 24.7891 306.125 24.1641C307.141 23.5911 308.234 23.1615 309.406 22.875C310.266 22.7188 311.607 22.5885 313.43 22.4844C314.992 22.4844 316.346 22.6146 317.492 22.875C318.82 23.0312 320.096 23.4349 321.32 24.0859C322.414 24.5026 323.599 25.1667 324.875 26.0781C326.177 27.0417 327.245 27.9792 328.078 28.8906C329.068 29.8802 329.888 30.974 330.539 32.1719C331.216 33.2135 331.828 34.4635 332.375 35.9219C332.844 37.224 333.195 38.6042 333.43 40.0625C333.586 41.0781 333.716 42.5755 333.82 44.5547C333.82 46.2734 333.716 47.849 333.508 49.2812C333.378 50.6094 333.052 51.9896 332.531 53.4219C332.141 54.6979 331.581 55.9349 330.852 57.1328C330.253 58.2005 329.484 59.2943 328.547 60.4141C327.427 61.4818 326.359 62.3802 325.344 63.1094C324.38 63.7865 323.208 64.4896 321.828 65.2188C320.891 65.5573 319.576 65.9219 317.883 66.3125C317.023 66.4688 315.669 66.599 313.82 66.7031C312.18 66.7031 310.786 66.5729 309.641 66.3125C308.286 66.0521 307.089 65.6224 306.047 65.0234C305.005 64.4766 304.107 63.7604 303.352 62.875C302.648 62.1458 302.062 61.2083 301.594 60.0625V66H288.156V4.86719H301.984ZM310.617 32.9531C309.393 32.9531 308.221 33.2786 307.102 33.9297C306.112 34.3724 305.148 35.1667 304.211 36.3125C303.378 37.4323 302.74 38.6562 302.297 39.9844C301.958 41.0781 301.75 42.6016 301.672 44.5547C301.672 46.3516 301.88 47.9271 302.297 49.2812C302.661 50.5833 303.299 51.8073 304.211 52.9531C305.07 54.0469 306.06 54.8802 307.18 55.4531C308.169 55.8958 309.315 56.1562 310.617 56.2344C311.971 56.2344 313.169 55.974 314.211 55.4531C315.279 54.9323 316.242 54.099 317.102 52.9531C317.961 51.9375 318.625 50.7135 319.094 49.2812C319.406 48.1354 319.628 46.5599 319.758 44.5547C319.758 42.8099 319.536 41.2865 319.094 39.9844C318.703 38.6562 318.065 37.4453 317.18 36.3516C316.294 35.2318 315.305 34.4245 314.211 33.9297C313.326 33.4089 312.128 33.1094 310.617 33.0312V32.9531ZM362.258 67.0547C359.081 67.0547 356.073 66.5729 353.234 65.6094C350.5 64.6458 348.091 63.0964 346.008 60.9609C343.977 58.9297 342.44 56.5339 341.398 53.7734C340.461 51.1432 339.953 48.0964 339.875 44.6328C339.875 41.1693 340.383 38.1354 341.398 35.5312C342.31 32.901 343.846 30.5182 346.008 28.3828C348.143 26.2995 350.526 24.763 353.156 23.7734C355.682 22.7839 358.716 22.25 362.258 22.1719C365.773 22.1719 368.82 22.7057 371.398 23.7734C374.159 24.737 376.555 26.2734 378.586 28.3828C380.617 30.4661 382.167 32.875 383.234 35.6094C384.224 38.2396 384.758 41.2474 384.836 44.6328C384.836 47.9401 384.302 50.9609 383.234 53.6953C382.219 56.5078 380.643 58.9036 378.508 60.8828C376.555 62.8359 374.159 64.4115 371.32 65.6094C368.586 66.5729 365.565 67.0547 362.258 67.0547ZM362.258 55.375C363.664 55.375 364.81 55.1536 365.695 54.7109C366.685 54.2422 367.57 53.5 368.352 52.4844C369.107 51.4167 369.667 50.2969 370.031 49.125C370.318 47.9531 370.5 46.4557 370.578 44.6328C370.578 42.9661 370.396 41.5078 370.031 40.2578C369.745 39.0599 369.185 37.901 368.352 36.7812C367.57 35.7917 366.685 35.0755 365.695 34.6328C364.758 34.1641 363.612 33.9297 362.258 33.9297C361.216 33.9297 360.122 34.1641 358.977 34.6328C358.013 35.1016 357.115 35.8568 356.281 36.8984C355.604 37.7578 355.018 38.9036 354.523 40.3359C354.211 41.4036 354.016 42.8359 353.938 44.6328C353.938 46.3255 354.133 47.8099 354.523 49.0859C354.914 50.3359 355.5 51.4688 356.281 52.4844C356.958 53.3958 357.831 54.138 358.898 54.7109C359.862 55.2057 360.982 55.4531 362.258 55.4531V55.375ZM393.859 66V23.0312H407.219V29.5938C407.948 28.526 408.833 27.4974 409.875 26.5078C410.943 25.4922 411.945 24.737 412.883 24.2422C413.977 23.6693 415.122 23.2396 416.32 22.9531C417.518 22.6406 418.82 22.4844 420.227 22.4844C422.206 22.4844 424.003 22.7969 425.617 23.4219C427.128 23.9948 428.456 24.9323 429.602 26.2344C430.669 27.4583 431.49 28.9818 432.062 30.8047C432.583 32.3411 432.883 34.3333 432.961 36.7812V66H419.055V40.8828C419.055 39.6589 418.911 38.6432 418.625 37.8359C418.469 37.0807 418.156 36.3906 417.688 35.7656C417.271 35.1927 416.711 34.7891 416.008 34.5547C415.539 34.3724 414.732 34.2422 413.586 34.1641C412.727 34.1641 411.906 34.3203 411.125 34.6328C410.474 34.8932 409.862 35.401 409.289 36.1562C408.846 36.7552 408.469 37.6146 408.156 38.7344C408.026 39.4375 407.922 40.5833 407.844 42.1719V66H393.859Z" fill="url(#paint1_linear_1872_141)"/>
<path d="M189.445 94.3672C188.299 93.3776 187.128 92.4661 185.93 91.6328C184.784 90.9036 183.469 90.2135 181.984 89.5625C180.839 89.1198 179.432 88.7422 177.766 88.4297C176.75 88.2734 175.174 88.1432 173.039 88.0391C171.216 88.0391 169.641 88.1693 168.312 88.4297C166.932 88.5859 165.5 88.9896 164.016 89.6406C162.714 90.1094 161.398 90.7995 160.07 91.7109C158.69 92.6745 157.544 93.612 156.633 94.5234C155.487 95.6953 154.471 96.9453 153.586 98.2734C152.727 99.6797 152.01 101.125 151.438 102.609C150.917 103.964 150.461 105.539 150.07 107.336C149.758 108.924 149.602 110.682 149.602 112.609C149.602 114.302 149.758 116.034 150.07 117.805C150.383 119.445 150.839 121.021 151.438 122.531C151.906 123.781 152.622 125.214 153.586 126.828C154.549 128.339 155.565 129.628 156.633 130.695C157.831 131.763 158.977 132.661 160.07 133.391C160.982 134.016 162.271 134.706 163.938 135.461C165.188 135.93 166.62 136.333 168.234 136.672C169.276 136.828 170.878 136.958 173.039 137.062C175.018 137.062 176.672 136.932 178 136.672C179.797 136.333 181.32 135.904 182.57 135.383C183.924 134.836 185.201 134.12 186.398 133.234C187.622 132.453 188.742 131.438 189.758 130.188L195.031 135.891C193.781 137.141 192.232 138.391 190.383 139.641C188.794 140.604 187.062 141.49 185.188 142.297C183.859 142.714 181.945 143.156 179.445 143.625C177.727 143.938 175.591 144.133 173.039 144.211C170.721 144.211 168.586 144.016 166.633 143.625C164.68 143.312 162.74 142.844 160.812 142.219C158.859 141.438 157.102 140.552 155.539 139.562C153.846 138.443 152.323 137.245 150.969 135.969C149.484 134.484 148.091 132.857 146.789 131.086C145.643 129.237 144.667 127.362 143.859 125.461C143.234 123.924 142.609 121.854 141.984 119.25C141.698 117.349 141.516 115.135 141.438 112.609C141.438 110.135 141.62 107.896 141.984 105.891C142.479 103.417 143.104 101.333 143.859 99.6406C144.641 97.7396 145.617 95.9036 146.789 94.1328C147.987 92.388 149.38 90.7604 150.969 89.25C152.297 87.9219 153.82 86.6979 155.539 85.5781C157.102 84.5365 158.859 83.651 160.812 82.9219C162.531 82.2708 164.471 81.737 166.633 81.3203C168.612 81.0078 170.747 80.8516 173.039 80.8516C175.201 80.8516 177.284 81.0078 179.289 81.3203C181.164 81.6328 183.052 82.1146 184.953 82.7656C186.698 83.3906 188.378 84.2109 189.992 85.2266C191.555 86.1641 193.078 87.2839 194.562 88.5859L189.445 94.3672ZM207.297 118.508H235.227C235.07 116.867 234.589 115.292 233.781 113.781C233.052 112.297 232.036 111.021 230.734 109.953C229.458 108.833 228.052 108.013 226.516 107.492C225.188 106.971 223.508 106.672 221.477 106.594C219.523 106.594 217.792 106.893 216.281 107.492C214.693 108.065 213.247 108.911 211.945 110.031C210.695 111.125 209.654 112.414 208.82 113.898C208.169 115.201 207.661 116.763 207.297 118.586V118.508ZM207.297 124.523C207.453 126.503 207.909 128.26 208.664 129.797C209.497 131.359 210.565 132.753 211.867 133.977C213.273 135.096 214.849 135.995 216.594 136.672C218.13 137.193 220.044 137.492 222.336 137.57C223.924 137.57 225.24 137.427 226.281 137.141C227.714 136.776 228.938 136.333 229.953 135.812C231.281 135.109 232.401 134.406 233.312 133.703C234.276 132.974 235.318 131.997 236.438 130.773L241.711 134.914C240.383 136.555 238.964 137.948 237.453 139.094C235.969 140.24 234.458 141.19 232.922 141.945C231.568 142.544 229.888 143.052 227.883 143.469C226.138 143.781 224.211 143.977 222.102 144.055C220.435 144.055 218.833 143.885 217.297 143.547C215.865 143.339 214.406 142.948 212.922 142.375C211.516 141.802 210.174 141.073 208.898 140.188C207.753 139.432 206.607 138.456 205.461 137.258C205.018 136.685 204.25 135.643 203.156 134.133C202.661 133.299 202.076 132.102 201.398 130.539C201.008 129.549 200.63 128.208 200.266 126.516C200.161 125.604 200.057 124.25 199.953 122.453C199.953 119.12 200.422 116.099 201.359 113.391C202.323 110.682 203.82 108.312 205.852 106.281C207.883 104.198 210.188 102.648 212.766 101.633C215.24 100.643 218.169 100.109 221.555 100.031C224.784 100.031 227.74 100.604 230.422 101.75C233.104 102.87 235.448 104.51 237.453 106.672C239.38 108.755 240.878 111.294 241.945 114.289C242.883 117.023 243.391 120.279 243.469 124.055V124.523H207.297ZM252.453 143V82.375H259.719V143H252.453ZM272.141 143V82.375H279.406V143H272.141Z" fill="url(#paint2_linear_1872_141)"/>
</g>
<defs>
<linearGradient id="paint0_linear_1872_141" x1="82" y1="13.5" x2="-4.99999" y2="210.5" gradientUnits="userSpaceOnUse">
<stop stop-color="#D3D82A"/>
<stop offset="1" stop-color="#69FF55"/>
</linearGradient>
<linearGradient id="paint1_linear_1872_141" x1="319.768" y1="16.4737" x2="324.393" y2="69.7139" gradientUnits="userSpaceOnUse">
<stop stop-color="#D3D82A"/>
<stop offset="1" stop-color="#80F86F"/>
</linearGradient>
<linearGradient id="paint2_linear_1872_141" x1="267.038" y1="99" x2="222.568" y2="176.982" gradientUnits="userSpaceOnUse">
<stop offset="0.090212" stop-color="#D3D82A"/>
<stop offset="1" stop-color="#94EB88"/>
</linearGradient>
<clipPath id="clip0_1872_141">
<rect width="439" height="154" fill="white"/>
</clipPath>
</defs>
</svg>
